<svg transform="scale(1)" id="cYnQMvq72f" xmlns="http://www.w3.org/2000/svg" viewBox="0 0 500 500" class="pbimage_pbimage__wrapper__image__0LEis false"><title>Hiring 6</title><defs><style> .cls-1{fill:#fff;} .cls-2{fill:#f4a28c;} .cls-3, .cls-4{fill:#a5a5a5;} .cls-5{fill:#e6e6e6;} .cls-4{opacity:.34;} .cls-6{fill:#24285b;} .cls-7{fill:#ffd200;} .cls-8{fill:#68e1fd;}
 .cls-3, .cls-4{fill:#A5A5A5;}
 .cls-8{fill:#F04D32;}
 .cls-7{fill:#FFD200;}
 .cls-6{fill:#24285B;}
 .cls-5{fill:#E6E6E6;}
 .cls-2{fill:#F4A28C;}
 .cls-1{fill:#FFFFFF;}</style></defs><g id="candidates"><g id="person"><path class="cls-7" d="m160.05,79.22l36.21,8.08c3.13-13.2,16.28-21.48,29.56-18.51,13.28,2.96,21.66,16.05,18.88,29.32l32.43,7.24c8.14,1.82,13.31,9.96,11.49,18.09l-7.98,35.75c-13.38-2.99-26.66,5.44-29.64,18.82-2.99,13.38,5.44,26.66,18.82,29.64l-8.32,37.27c-1.82,8.14-9.96,13.31-18.09,11.49l-117.07-26.13c-8.14-1.82-13.31-9.96-11.49-18.09l27.12-121.48c1.82-8.14,9.96-13.31,18.09-11.49Z"></path></g><path class="cls-5" id="puzz3" d="m140.12,430.12l132.19,27.99,11.28-50.54c13.38,2.99,26.65-5.44,29.64-18.82,2.99-13.38-5.44-26.65-18.82-29.64l11.83-50.77-47.74-10.38c-2.99,13.38-15.94,20.37-29.32,17.38-13.38-2.99-21.81-16.26-18.82-29.64l-36.19-8.08c-8.14-1.82-16.28,3.35-18.09,11.49l-27.44,122.92c-1.82,8.14,3.35,16.28,11.49,18.09Z" fill="#E6E6E6"></path><path class="cls-3" id="puzz2" d="m316.09,255.88c.6.13,1.19.22,1.79.31l-11.85,53.07,145.09,31.42,30.42-136.27c1.82-8.14-3.35-16.28-11.49-18.09l-115.3-25.74c-8.14-1.82-16.28,3.35-18.09,11.49l-8,35.84c-.58-.17-1.15-.35-1.75-.48-13.38-2.99-26.66,5.44-29.64,18.82-2.99,13.38,5.44,26.65,18.82,29.64Z"></path><path class="cls-6" id="puzz1" d="m292.77,360.37c13.38,2.99,23.32,13.4,20.33,26.78-2.99,13.38-16.26,21.81-29.64,18.82-.28-.06-.54-.16-.82-.23l-11.95,53.52,131.87,29.43c8.14,1.82,16.28-3.35,18.09-11.49l30.42-136.27-47.08-10.51c.12-.44.27-.87.37-1.32,2.99-13.38-5.44-26.66-18.82-29.64-13.38-2.99-26.66,5.44-29.64,18.82-.1.45-.16.9-.23,1.35l-51.25-11.44-10.97,49.16c-.67,3-.95,2.94-.67,3Z" fill="#24285B"></path><circle class="cls-1" cx="395.99" cy="242.52" r="36.18" fill="#FFFFFF"></circle><circle class="cls-6" cx="398.83" cy="231.63" r="11.82" fill="#24285B"></circle><rect class="cls-6" x="376.2" y="247.55" width="34.52" height="16.32" rx="6.89" ry="6.89" transform="translate(65.16 -79.58) rotate(12.58)" fill="#24285B"></rect><circle class="cls-1" cx="361.61" cy="400.23" r="36.18" fill="#FFFFFF"></circle><circle class="cls-6" cx="364.46" cy="389.34" r="11.82" fill="#24285B"></circle><rect class="cls-6" x="341.82" y="405.26" width="34.52" height="16.32" rx="6.89" ry="6.89" transform="translate(98.69 -68.3) rotate(12.58)" fill="#24285B"></rect><circle class="cls-1" cx="217.63" cy="367.68" r="36.18" fill="#FFFFFF"></circle><circle class="cls-6" cx="220.47" cy="356.79" r="11.82" fill="#24285B"></circle><rect class="cls-6" x="197.84" y="372.71" width="34.52" height="16.32" rx="6.89" ry="6.89" transform="translate(88.14 -37.71) rotate(12.58)" fill="#24285B"></rect></g><g id="searching"><rect class="cls-6" x="104.7" y="226.98" width="18.09" height="126.64" rx="1.84" ry="1.84" transform="translate(130.63 -21.03) rotate(24.5)"></rect><rect class="cls-8" x="55.55" y="309.78" width="36.18" height="139.34" rx="17.53" ry="17.53" transform="translate(164 3.63) rotate(24.5)"></rect><circle class="cls-6" cx="157.51" cy="190.83" r="90.45"></circle><circle class="cls-1" cx="157.51" cy="190.83" r="62.19"></circle><path class="cls-2" d="m148.37,196.99l3.45-24.16s-5.75-21.4,11.27-19.79c17.03,1.61,13.81,29.45,9.43,32.21-4.37,2.76-9.2-.92-9.2-.92l1.15,14.04-16.11-1.38Z"></path><path class="cls-7" d="m109.27,230.1s1.37-26.73,26.68-33.52c25.31-6.79,63.36-6.01,67.48,37.36l-94.15-3.84Z"></path><path class="cls-6" d="m148.37,175.53s0,5.13,6.44,2.83c6.45-2.3,7.38-11.04,7.38-11.04,0,0,16.09-1.61,16.78-11.27s-12.16-10.81-16.78-10.81-25.79,4.01-13.82,30.31Z"></path><circle class="cls-7" cx="141" cy="155.5" r="8.8"></circle><path class="cls-7" d="m109.27,230.1s14.33,22.88,45.65,23.35c32,.48,48.5-19.51,48.5-19.51l-94.15-3.84Z"></path></g><g id="spark"><polygon class="cls-5" points="93.42 98.22 93.64 42.88 82.92 44.11 88.95 98.41 93.42 98.22"></polygon><polygon class="cls-5" points="75.91 110.27 37 70.93 30.27 79.37 72.88 113.56 75.91 110.27"></polygon><polygon class="cls-5" points="66.83 125.85 11.5 125.73 12.74 136.45 67.03 130.32 66.83 125.85"></polygon></g><g id="mail"><rect class="cls-8" x="388.43" y="23.5" width="100.07" height="68.54" rx="13.63" ry="13.63"></rect><path class="cls-1" d="m438.47,77.13c-.44,0-.86-.17-1.17-.47l-39.5-37.51c-.68-.65-.71-1.73-.06-2.41.65-.68,1.73-.71,2.41-.06l38.25,36.33,35.52-37.81c.65-.68,1.72-.72,2.41-.08.69.64.72,1.72.08,2.41l-36.69,39.06c-.31.33-.74.52-1.19.54-.02,0-.03,0-.05,0Z"></path><rect class="cls-1" x="463.56" y="64.4" width="15.08" height="15.08" rx="7.54" ry="7.54"></rect><path class="cls-4" d="m321.8,105.36c-.61,0-1.22-.03-1.81-.09-1.25-.13-2.16-1.25-2.03-2.49.13-1.25,1.24-2.17,2.49-2.03.63.06,1.29.08,1.93.06,1.3-.04,2.31.92,2.37,2.17.05,1.25-.92,2.31-2.17,2.37-.26.01-.53.02-.79.02Zm11.03-4.2c-.64,0-1.27-.27-1.72-.79-.82-.95-.72-2.39.23-3.21.5-.43.97-.9,1.41-1.39.84-.94,2.27-1.01,3.21-.18.93.84,1.01,2.27.18,3.21-.57.63-1.18,1.24-1.83,1.79-.43.37-.96.55-1.48.55Zm-22.41-1.05c-.63,0-1.26-.26-1.71-.77-.55-.63-1.08-1.31-1.56-2.02-.7-1.04-.43-2.45.61-3.16,1.04-.7,2.45-.43,3.16.61.38.56.78,1.09,1.21,1.57.83.94.74,2.38-.21,3.21-.43.38-.97.57-1.5.57Zm28.53-10.77c-.08,0-.17,0-.25-.01-1.25-.14-2.15-1.26-2.01-2.51.07-.65.11-1.31.11-1.98,0-1.25,1.02-2.29,2.27-2.29s2.27,1,2.27,2.25c0,.87-.04,1.7-.13,2.51-.13,1.16-1.11,2.03-2.26,2.03Zm-33.82-1.59c-1.1,0-2.06-.79-2.24-1.91-.12-.77-.23-1.56-.31-2.38-.13-1.25.78-2.36,2.03-2.49,1.25-.15,2.37.78,2.49,2.03.08.73.17,1.44.28,2.12.2,1.24-.64,2.41-1.88,2.61-.12.02-.25.03-.37.03Zm31.3-11.63c-.85,0-1.67-.48-2.05-1.3-.29-.62-.62-1.26-.98-1.9-.6-1.1-.2-2.48.9-3.09,1.1-.6,2.48-.2,3.09.9.4.73.77,1.44,1.1,2.14.54,1.13.05,2.49-1.08,3.03-.31.15-.65.22-.97.22Zm-30.21-1.74c-.3,0-.61-.06-.91-.19-1.15-.5-1.68-1.84-1.17-2.99.34-.78.73-1.54,1.16-2.27.64-1.08,2.03-1.44,3.11-.79,1.08.64,1.43,2.03.79,3.11-.34.57-.64,1.16-.9,1.76-.37.85-1.21,1.36-2.08,1.36Zm-134.35-3.92c-1.11,0-2.08-.81-2.25-1.94l-.05-.4c-.14-1.25.75-2.37,2-2.52,1.24-.15,2.37.75,2.52,2l.03.28c.18,1.24-.69,2.39-1.92,2.57-.11.02-.22.02-.33.02Zm157.1-5.72c-.66,0-1.32-.29-1.77-.84-.46-.56-.93-1.13-1.42-1.71-.81-.96-.7-2.39.26-3.2.06-.05.11-.09.17-.13-.13-.21-.23-.44-.29-.69-.28-1.22.48-2.44,1.7-2.73.76-.18,1.53-.34,2.3-.49,1.23-.25,2.43.56,2.67,1.79.24,1.23-.56,2.43-1.79,2.67-.41.08-.81.16-1.22.25.39.46.77.92,1.14,1.38.79.97.64,2.41-.34,3.2-.42.34-.93.51-1.43.51Zm-13.55-.08c-.78,0-1.54-.4-1.97-1.13-.63-1.08-.26-2.48.82-3.11.69-.4,1.41-.79,2.14-1.15,1.13-.55,2.49-.09,3.04,1.04.55,1.13.09,2.49-1.04,3.04-.64.31-1.27.65-1.86,1-.36.21-.75.31-1.14.31Zm55.73-5.85c-.1,0-.21,0-.31-.02-.02,0-.81-.11-2.19-.26-1.25-.13-2.15-1.25-2.02-2.5.13-1.25,1.25-2.15,2.5-2.02,1.49.16,2.33.28,2.33.28,1.24.17,2.11,1.32,1.94,2.56-.16,1.14-1.13,1.96-2.25,1.96Zm-199.12-.03c-.1,0-.19,0-.29-.02-1.24-.16-2.13-1.29-1.97-2.54.1-.76.21-1.55.35-2.35.21-1.24,1.38-2.07,2.62-1.85,1.24.21,2.07,1.39,1.85,2.62-.13.73-.23,1.45-.32,2.15-.15,1.15-1.12,1.99-2.25,1.99Zm169.61-.8c-1.18,0-2.17-.91-2.26-2.1-.09-1.25.85-2.34,2.1-2.43.78-.06,1.55-.11,2.32-.15,1.21-.08,2.32.89,2.39,2.15.07,1.25-.89,2.32-2.15,2.39-.74.04-1.48.09-2.23.14-.06,0-.11,0-.17,0Zm15.91-.24s-.06,0-.09,0c-.73-.03-1.47-.05-2.24-.07-1.25-.03-2.25-1.07-2.22-2.32.03-1.24,1.04-2.22,2.27-2.22.02,0,.04,0,.05,0,.79.02,1.56.04,2.31.07,1.25.05,2.23,1.1,2.19,2.36-.05,1.22-1.05,2.19-2.27,2.19Zm-37.84-3.01c-.57,0-1.13-.21-1.57-.63-.53-.51-1.07-1.02-1.63-1.54-.92-.85-.97-2.29-.12-3.21.86-.92,2.3-.97,3.21-.12.57.53,1.13,1.06,1.68,1.59.91.87.93,2.31.06,3.21-.45.46-1.04.7-1.64.7Zm-10.28-8.97c-.49,0-.99-.16-1.41-.49-.58-.46-1.17-.92-1.77-1.38-.99-.77-1.18-2.19-.41-3.19.77-1,2.19-1.18,3.19-.41.61.47,1.22.95,1.82,1.42.98.78,1.15,2.21.37,3.19-.45.56-1.11.86-1.78.86Zm-133.88-.11c-.3,0-.6-.06-.9-.19-1.15-.5-1.68-1.83-1.19-2.99.31-.72.64-1.45,1-2.17.55-1.12,1.92-1.59,3.04-1.03,1.12.56,1.58,1.92,1.03,3.04-.32.65-.62,1.3-.9,1.95-.37.86-1.21,1.37-2.09,1.37Zm122.84-7.9c-.43,0-.87-.12-1.25-.38-.62-.41-1.25-.82-1.88-1.22-1.06-.68-1.36-2.08-.69-3.14.68-1.05,2.08-1.36,3.14-.69.65.42,1.29.84,1.93,1.26,1.05.69,1.33,2.1.64,3.15-.44.66-1.16,1.02-1.9,1.02Zm-115.52-3.52c-.54,0-1.09-.2-1.53-.59-.93-.84-1-2.28-.15-3.21.53-.58,1.08-1.16,1.66-1.73.9-.88,2.33-.87,3.21.03.88.89.87,2.33-.03,3.21-.52.51-1.01,1.02-1.49,1.55-.45.49-1.06.74-1.68.74Zm103.83-3.5c-.37,0-.74-.09-1.08-.28-.65-.36-1.31-.71-1.97-1.05-1.11-.58-1.54-1.95-.96-3.07.58-1.11,1.95-1.54,3.07-.96.68.36,1.36.72,2.04,1.09,1.1.6,1.51,1.98.91,3.08-.41.76-1.19,1.19-2,1.19Zm-93.2-4.93c-.78,0-1.54-.4-1.96-1.12-.63-1.08-.27-2.47.81-3.11.68-.4,1.35-.78,2.03-1.15,1.1-.6,2.48-.2,3.08.9.6,1.1.2,2.48-.9,3.08-.64.35-1.28.71-1.92,1.09-.36.21-.76.31-1.14.31Zm80.93-1.01c-.3,0-.6-.06-.89-.18-.69-.29-1.37-.58-2.06-.86-1.16-.47-1.72-1.8-1.24-2.96.47-1.16,1.8-1.72,2.96-1.24.71.29,1.42.59,2.13.89,1.15.49,1.69,1.83,1.2,2.98-.37.86-1.21,1.38-2.09,1.38Zm-12.8-4.68c-.22,0-.44-.03-.67-.1-.71-.22-1.42-.43-2.14-.63-1.21-.34-1.91-1.6-1.56-2.81.34-1.21,1.6-1.91,2.81-1.56.74.21,1.48.43,2.22.66,1.2.37,1.87,1.64,1.51,2.84-.3.98-1.2,1.61-2.17,1.61Zm-55.81-.1c-.93,0-1.8-.57-2.14-1.5-.43-1.18.18-2.48,1.36-2.91.74-.27,1.47-.52,2.21-.76,1.19-.39,2.48.26,2.87,1.45.39,1.19-.26,2.48-1.45,2.87-.69.23-1.39.47-2.08.72-.26.09-.52.14-.78.14Zm42.56-3.1c-.13,0-.26-.01-.39-.03-.73-.13-1.46-.25-2.19-.36-1.24-.19-2.09-1.34-1.91-2.59.19-1.24,1.35-2.1,2.59-1.91.77.12,1.53.24,2.3.37,1.24.22,2.06,1.39,1.85,2.63-.19,1.1-1.15,1.88-2.24,1.88Zm-29.4-.35c-1.09,0-2.05-.79-2.24-1.9-.21-1.24.63-2.41,1.86-2.62.77-.13,1.54-.25,2.31-.35,1.24-.18,2.39.7,2.56,1.94.17,1.24-.7,2.39-1.94,2.56-.73.1-1.45.21-2.18.33-.13.02-.25.03-.38.03Zm15.85-1.05s-.05,0-.07,0c-.74-.02-1.47-.03-2.21-.04-1.25,0-2.27-1.02-2.27-2.28,0-1.25,1.02-2.27,2.27-2.27h0c.78,0,1.56.01,2.33.04,1.25.04,2.24,1.08,2.2,2.34-.04,1.23-1.05,2.21-2.27,2.21Z"></path></g></svg>